<svg width="589" height="1266" viewBox="0 0 589 1266" fill="none" xmlns="http://www.w3.org/2000/svg">
<path d="M230.1 992.3C415.226 992.3 565.3 842.226 565.3 657.1C565.3 471.974 415.226 321.9 230.1 321.9C44.9742 321.9 -105.1 471.974 -105.1 657.1C-105.1 842.226 44.9742 992.3 230.1 992.3Z" fill="#597ABC"/>
<mask id="mask0_10_300" style="mask-type:luminance" maskUnits="userSpaceOnUse" x="-106" y="146" width="672" height="847">
<path d="M565.2 657.1C565.2 842.2 415.1 992.3 230 992.3C44.9 992.3 -105.2 842.2 -105.2 657.1C-105.2 472 44.9 146.3 230 146.3C415.1 146.3 565.2 472 565.2 657.1Z" fill="white"/>
</mask>
<g mask="url(#mask0_10_300)">
<path d="M305.2 298.2C305.2 298.2 354.7 440.4 321.4 471.3C298.3 492.7 273.3 458.2 175.2 458.3C129.5 458.3 122.9 488.4 101.3 464.8C67.2 427.5 117.4 309.4 123 284.1C127.7 262.8 305.2 298.2 305.2 298.2Z" fill="#673392"/>
<path d="M352.4 1001H84L78 889.7H353.3L352.4 1001Z" fill="#263A49"/>
<path d="M352.4 919.2H84L78 889.7H353.3L352.4 919.2Z" fill="#263A49"/>
<path d="M242.4 438.6C242.4 438.6 243.9 470.9 251.5 480C271.7 504.2 336.7 504.5 350.9 585.9C361 643.5 351.5 889.7 351.5 889.7H78C78 889.7 58.7 659.7 58 544.4C57.8 498.9 139.2 494 158.8 477C167.4 469.5 168.7 404.8 168.7 404.8L242.4 438.6Z" fill="#FBB882"/>
<path opacity="0.5" d="M143.5 486.4C143.6 486.4 143.6 486.4 143.5 486.4C146.2 486.5 148.8 486.6 151.5 486.6C156 486.5 160.4 487.3 164.5 488.7C187.1 469.2 215.1 460.3 244.3 457.2C242.8 447.4 242.4 438.5 242.4 438.5L168.6 404.7C168.6 404.7 167.4 469.4 158.8 476.9C155 480.2 148.7 483.1 141.2 485.9C141.9 486.1 142.7 486.3 143.5 486.4Z" fill="#FBB882"/>
<path d="M155.4 479.4H168.9L228 510.2L252.1 479.4C252.1 479.4 283.8 495.3 286.4 496.2C289 497.1 311.8 661.1 311.8 661.1L295.1 889.7H193.1L155.4 479.4Z" fill="#F79221"/>
<path d="M218.3 516.6L240.6 514.3C240.6 514.3 277.7 781.6 272.7 815.4C267.6 849.2 251.5 858.6 251.5 858.6L222.4 805.7C222.3 805.8 232.9 624.4 218.3 516.6Z" fill="#FFD14F"/>
<path d="M251.4 480C251.4 480 290.7 646.2 286.2 710.8C281.7 775.4 260.1 912.9 286.6 944.2C313 975.5 379.6 1010.1 386.8 988.9C394 967.7 391.5 729.9 378 634.4C361.5 518.5 318.2 506.9 251.4 480Z" fill="#EDF8FC"/>
<path d="M251.4 480C251.4 480 290.7 646.2 286.2 710.8C281.7 775.4 260.1 912.9 286.6 944.2C278.2 876.7 304.1 730.1 303 676.2C302.6 654.9 298.8 587.9 299.2 573.6C299.3 571.8 281.9 558.9 282 557.2C282.2 553.8 302.5 556.3 303 553.2C306.5 528.7 305.6 517.6 303 505.3C287.7 496 269.7 484.6 251.4 480Z" fill="#DEEDF3"/>
<path d="M298.8 307.7C307.3 343.8 286.3 446.7 251.5 449.6C219.7 452.3 175.5 430.7 162.6 415.2C155.2 406.3 154.5 392 153 382C153 382 133 387.7 133 354.2C133 333.7 149.6 338.4 155 343C153.3 330.3 158 300.7 169.8 284.7C200.1 243.8 285.6 252.2 298.8 307.7Z" fill="#FBB882"/>
<path d="M192.9 294.6C192.9 294.6 200.7 316.4 183.1 331.5C166.6 345.7 160.3 346.8 153.3 352.8C136.3 367.3 129.8 386.4 129.8 386.4C129.8 386.4 103 369.5 117 304.4C123.1 276.1 134.1 257.7 152.8 260.4C152.8 260.4 157 233 198.9 225.4C237.4 218.4 260.5 233.6 289.8 254.2C313 270.5 326.4 326.7 310.8 332.4C288.5 340.5 228.4 325.4 192.9 294.6Z" fill="#673392"/>
<path d="M218.8 362.3C218.8 365.5 216.2 368.1 213 368.1C209.8 368.1 207.2 365.5 207.2 362.3C207.2 359.1 209.8 356.5 213 356.5C216.2 356.5 218.8 359.1 218.8 362.3Z" fill="#482F5A"/>
<path d="M196.9 355C196.6 355 196.3 354.9 196 354.7C195.3 354.2 195.2 353.2 195.7 352.6C195.8 352.5 208.2 339.5 222.2 344.8C223 345.1 223.4 346 223.1 346.8C222.8 347.6 221.9 348 221.2 347.7C209.3 343.2 198.3 354.4 198.2 354.5C197.8 354.8 197.3 355 196.9 355Z" fill="#482F5A"/>
<path d="M265.8 362.3C265.8 365.5 268.4 368.1 271.6 368.1C274.8 368.1 277.4 365.5 277.4 362.3C277.4 359.1 274.8 356.5 271.6 356.5C268.4 356.5 265.8 359.1 265.8 362.3Z" fill="#482F5A"/>
<path d="M285.6 354.9C285.2 354.9 284.7 354.7 284.4 354.3C284 353.8 275.4 343 263.5 347.5C262.7 347.8 261.8 347.4 261.6 346.6C261.3 345.8 261.7 344.9 262.5 344.6C276.5 339.3 286.7 352.2 286.8 352.3C287.3 353 287.2 353.9 286.5 354.4C286.2 354.8 285.9 354.9 285.6 354.9Z" fill="#482F5A"/>
<path d="M249.7 394.9C249.2 394.9 248.7 394.6 248.4 394.2C248 393.5 248.2 392.5 248.9 392.1C249.4 391.8 249.7 391.4 249.8 390.8C250.5 387.4 246.6 380 243.9 376.1C243.4 375.4 243.6 374.5 244.3 374C245 373.5 245.9 373.7 246.4 374.4C247.2 375.5 254 385.6 252.8 391.5C252.5 392.9 251.7 394.1 250.5 394.8C250.3 394.9 250 394.9 249.7 394.9Z" fill="#482F5A"/>
<path d="M241.9 416C234.8 416 226.8 414.1 220.5 407.3C219.9 406.7 220 405.7 220.6 405.2C221.2 404.6 222.2 404.7 222.7 405.3C235.7 419.3 257.9 409.8 258.2 409.7C259 409.4 259.9 409.7 260.2 410.5C260.5 411.3 260.2 412.2 259.4 412.5C258.9 412.7 251.1 416 241.9 416Z" fill="#482F5A"/>
<path d="M155.4 479.4C155.4 479.4 213.8 605.1 222.3 639.9C252.1 761.4 231.4 927.8 213.6 950.6C195.8 973.4 52.6 1018.8 35.9 975.6C19.2 932.4 42 748.9 38.9 721.7C35.8 694.5 36.3001 579.5 43.3001 559.1C48.9001 543.4 45.5 513.7 155.4 479.4Z" fill="#EDF8FC"/>
<path d="M155.4 479.4C155.4 479.4 213.8 605.1 222.3 639.9C252.1 761.4 231.4 927.8 213.6 950.6C215.6 915.4 243 791.2 215.8 705.1C206.4 675.4 172 620.7 163.3 591.7C161.9 587.1 180 570.5 174.9 570.5C168.1 570.5 152.1 567.8 149.1 565.4C145.9 562.8 120.3 520.8 113.4 494.4C125.2 489.5 139.1 484.5 155.4 479.4Z" fill="#DEEDF3"/>
<path d="M213.7 493.3C213.7 493.3 227.1 495.6 237.4 493.3C239.8 497.1 246.4 511.3 246.4 511.3L239.2 522.7C236.5 527 230.7 528.3 226.5 525.4C219 520.4 208.9 513.1 209.7 511C211 507.8 213.7 493.3 213.7 493.3Z" fill="#FFD14F"/>
<path opacity="0.5" d="M151.2 359.8C151.2 359.8 149.3 357.3 146.3 361.6C143.3 365.9 151.2 372.6 151.2 372.6V359.8Z" fill="#FBB882"/>
<path d="M364.6 879.6C364.4 879.6 364.1 879.6 363.8 879.5C328.1 870.3 301.5 844.1 300.4 843C299.2 841.8 299.2 839.9 300.4 838.7C301.6 837.5 303.5 837.5 304.7 838.7C305 839 331.3 864.9 365.4 873.6C367 874 368 875.7 367.6 877.3C367.2 878.7 366 879.6 364.6 879.6Z" fill="#DEEDF3"/>
<path d="M164.4 459.7C164.4 459.7 224.4 490.8 225.7 493.3C227 495.8 205.7 525.8 205.7 525.8L155.4 479.3L164.4 459.7Z" fill="#FCB53B"/>
<path d="M245.9 465.9C245.9 465.9 226.4 490.7 225.8 493.3C225.2 495.9 251.4 520.7 251.4 520.7L252.1 479.4L245.9 465.9Z" fill="#FCB53B"/>
<path d="M204.1 695.3C180.8 678 167.3 679.1 158.2 680.6C149.1 682.1 110 703.9 120.1 721.7C130.2 739.5 149.3 712.1 165.5 732.6C174.4 744.1 228.8 713.6 204.1 695.3Z" fill="#FBB882"/>
<path d="M115.1 823.5C122.5 822.4 129.9 821.5 137.3 820.6C139.3 820.4 141.3 820.2 143.3 819.9C143.4 819.9 144 819.8 145.3 819.5C156.4 817.7 167.5 816.4 178.5 814.3C188.6 812.3 196 808.7 204.5 805.4C215.6 801.1 242 783.2 249.6 777.4C252.4 775.3 239.5 759.2 246.3 757.7C267.7 748.8 305.5 746.7 301.7 700.2C300.6 701.4 232.5 722 231.4 723.2C227.8 726.9 223.6 730.5 219.3 733.4C202.1 766.2 157.2 761 127.1 756.3C110.8 753.8 91.1 750.4 73.9 743.9C61.9 743.5 49.8999 741.7 38.9999 737.6C37.6999 774.5 29.5999 856.4 29.6999 915.8C37.2999 868.5 64.4999 831.1 115.1 823.5Z" fill="#DEEDF3"/>
<path d="M196.4 714.6C196.4 714.6 227.3 699.9 237.4 691.8C251.8 680.2 262 679.9 275.6 679.9C289.2 679.9 314.9 691.9 314.9 707.5C314.9 733.3 284.7 706 271 712.1C257.4 718.2 250.1 737 241.5 742.6C237.3 745.3 224.9 754.7 224.9 754.7L196.4 714.6Z" fill="#FBB882"/>
<path d="M69.5 518.4C69.5 518.4 21.6999 547.5 -0.800095 613.2C-26.1001 686.7 -8.8 773.5 77.8 799.5C153.9 822.4 234.4 768.9 234.4 768.9L196.5 714.6C196.5 714.6 169.9 727.2 138.2 726.4C82.7999 725.1 69 698.3 56 661.1C45.5 631.6 44.2 558.5 69.5 518.4Z" fill="#EDF8FC"/>
<path d="M129.4 730.2C107.1 730.2 90.1001 723.3 78.8001 709.5C65.2001 693 63.4001 670.6 64.3001 654.7C65.3001 637 70.3 617.9 77.1 605.9C77.5 605.2 78.4 604.9 79.2 605.3C79.9 605.7 80.2001 606.6 79.8001 607.4C67.9001 628.3 58.1 679.6 81.2 707.6C100 730.4 135.4 733.3 186.5 716.1C187.3 715.8 188.1 716.3 188.4 717C188.7 717.8 188.2 718.7 187.5 718.9C165.2 726.5 145.9 730.2 129.4 730.2Z" fill="#DEEDF3"/>
<path d="M120.4 869.3C118.7 869.3 117.4 868 117.4 866.3C117.4 864.6 118.7 863.2 120.4 863.2C120.8 863.2 157.8 862.3 187.7 844C189.1 843.1 191 843.6 191.9 845C192.8 846.4 192.3 848.3 190.9 849.2C159.5 868.4 122.1 869.3 120.4 869.3Z" fill="#DEEDF3"/>
<path d="M309.1 772C266.3 760.3 158.4 709.9 160.9 725.4C172 793.7 311.9 820.2 333.6 818.3C354 816.5 388.3 801.7 388.3 773.9L309.1 772Z" fill="#DEEDF3"/>
<path d="M283.4 715.7C305.7 715.7 322.7 708.8 334 695C347.6 678.5 349.4 656.1 348.5 640.2C347.5 622.5 342.5 603.4 335.6 591.4C335.2 590.7 334.2 590.4 333.5 590.8C332.8 591.2 332.5 592.1 332.9 592.9C344.8 613.8 354.5 665.1 331.5 693.1C312.7 715.9 277.3 718.8 226.2 701.6C225.4 701.3 224.6 701.8 224.3 702.5C224 703.3 224.5 704.2 225.2 704.4C247.5 712 266.9 715.7 283.4 715.7Z" fill="#DEEDF3"/>
<path d="M341.2 532.1C341.2 532.1 443.5 623.3 426.2 714.9C408.9 806.5 278.4 828.5 161 725.3C161 725.3 197.9 687.6 209.4 693.2C262.3 718.8 327.9 719.1 345.1 689.6C367.6 650.7 331 552.2 341.2 532.1Z" fill="#EDF8FC"/>
</g>
<path opacity="0.4" d="M586.353 229.267C645.985 169.634 645.985 72.9507 586.353 13.3182C526.72 -46.3143 430.037 -46.3141 370.404 13.3183C310.772 72.9508 310.772 169.634 370.404 229.267C430.037 288.899 526.72 288.899 586.353 229.267Z" fill="#416FB6"/>
<path opacity="0.4" d="M405.6 1347.7C536.602 1347.7 642.8 1241.5 642.8 1110.5C642.8 979.498 536.602 873.3 405.6 873.3C274.598 873.3 168.4 979.498 168.4 1110.5C168.4 1241.5 274.598 1347.7 405.6 1347.7Z" fill="#416FB6"/>
</svg>
