<svg width="588" height="1266" viewBox="0 0 588 1266" fill="none" xmlns="http://www.w3.org/2000/svg">
<path d="M229.3 992.3C414.426 992.3 564.5 842.226 564.5 657.1C564.5 471.974 414.426 321.9 229.3 321.9C44.1741 321.9 -105.9 471.974 -105.9 657.1C-105.9 842.226 44.1741 992.3 229.3 992.3Z" fill="#597ABC"/>
<mask id="mask0_10_60" style="mask-type:luminance" maskUnits="userSpaceOnUse" x="-106" y="146" width="671" height="847">
<path d="M564.5 657.1C564.5 842.2 414.4 992.3 229.3 992.3C44.2 992.3 -105.9 842.2 -105.9 657.1C-105.9 472 44.2 146.3 229.3 146.3C414.4 146.3 564.5 472 564.5 657.1Z" fill="white"/>
</mask>
<g mask="url(#mask0_10_60)">
<path d="M102.2 324.9C102.2 324.9 129.8 418.5 129.1 425.6C128.4 432.7 118.9 450.8 111.4 450.2C107.5 423 85.4 413.2 71.1 385.1C58.6 360.6 57.2 326.4 62.7 301.5C67.3 280.7 102.2 324.9 102.2 324.9Z" fill="#1B335A"/>
<path d="M294.2 999.2H30.2999L24.2999 889.7H295.1L294.2 999.2Z" fill="#263A49"/>
<path d="M294.2 918.7H30.2999L24.2999 889.7H295.1L294.2 918.7Z" fill="#263A49"/>
<path d="M186 446C186 446 187.5 477.8 194.9 486.7C202.3 495.6 287.3 503.1 297.2 559.7C307.1 616.3 293.3 889.6 293.3 889.6H24.3C24.3 889.6 5.29998 663.4 4.59998 550C4.39998 505.3 84.5 500.4 103.7 483.7C112.2 476.3 113.4 412.6 113.4 412.6L186 446Z" fill="#FBB882"/>
<path opacity="0.5" d="M88.6999 493H88.7999C91.3999 493.1 93.8999 493.2 96.4999 493.2C101 493.1 105.3 493.9 109.3 495.2C131.5 476 159.1 467.3 187.8 464.3C186.3 454.7 185.9 445.9 185.9 445.9L113.4 412.6C113.4 412.6 112.2 476.3 103.7 483.7C99.8999 487 93.7999 489.8 86.3999 492.6C87.1999 492.8 87.9999 492.9 88.6999 493Z" fill="#FBB882"/>
<path d="M100.5 486.1H113.7L171.8 516.4L195.6 486.1C195.6 486.1 225 495.5 227.6 496.4C230.2 497.3 254.4 664.8 254.4 664.8L238 889.6H137.6L100.5 486.1Z" fill="#9CDBF2"/>
<path d="M194.9 486.7C194.9 486.7 233.6 650.2 229.1 713.8C224.7 777.4 203.4 912.5 229.4 943.3C255.4 974.1 320.9 1008.1 327.9 987.3C334.9 966.5 337.6 711.6 324.2 617.7C310 516.3 251.6 501.1 194.9 486.7Z" fill="#EDF8FC"/>
<path d="M194.9 486.7C194.9 486.7 233.6 650.2 229.1 713.8C224.7 777.4 203.4 912.5 229.4 943.3C221.2 876.9 246.6 732.7 245.5 679.7C245.1 658.7 241.3 592.9 241.8 578.8C241.8 577 224.8 564.4 224.9 562.6C225.1 559.3 245.1 561.7 245.5 558.6C248.9 534.5 248.7 516.3 246.1 504.2C230.1 496.4 212.9 491.3 194.9 486.7Z" fill="#DEEDF3"/>
<path d="M241.5 317.3C249.9 352.8 229.2 454 195 456.8C163.7 459.4 120.2 438.2 107.6 423C100.3 414.2 99.6 400.2 98.2 390.3C98.2 390.3 78.5 395.9 78.5 363C78.5 342.9 94.9 347.5 100.1 352C98.5 339.5 103.1 310.4 114.7 294.7C144.4 254.4 228.5 262.6 241.5 317.3Z" fill="#FBB882"/>
<path d="M137.3 304.4C137.3 304.4 145 325.8 127.7 340.7C111.5 354.7 111.1 368.5 111.1 368.5L104 364.7C104 364.7 102.2 359.1 97.1 353.2C94.6 350.3 87.9 347.2 85.2 348.8C82.5 350.5 65 335.6 62.6 314C59.6 285.7 79.3999 268 97.7999 270.7C97.7999 270.7 102 243.7 143.2 236.3C181.1 229.5 203.8 244.4 232.6 264.6C255.4 280.6 265.5 270.4 272.9 269.4C283.3 268 280.6 283 275.1 292.5C268.6 303.8 254.4 319.1 239 324.7C217.2 332.7 172.2 334.7 137.3 304.4Z" fill="#1B335A"/>
<path d="M157.1 376.7C160.248 376.7 162.8 374.148 162.8 371C162.8 367.852 160.248 365.3 157.1 365.3C153.952 365.3 151.4 367.852 151.4 371C151.4 374.148 153.952 376.7 157.1 376.7Z" fill="#482F5A"/>
<path d="M141.2 363.7C140.9 363.7 140.6 363.6 140.3 363.4C139.7 362.9 139.5 362 140 361.3C140.1 361.2 152.3 348.4 166.1 353.6C166.9 353.9 167.3 354.8 167 355.5C166.7 356.3 165.8 356.7 165.1 356.4C153.4 352 142.5 363 142.4 363.1C142.1 363.5 141.7 363.7 141.2 363.7Z" fill="#482F5A"/>
<path d="M214.8 376.7C217.948 376.7 220.5 374.148 220.5 371C220.5 367.852 217.948 365.3 214.8 365.3C211.652 365.3 209.1 367.852 209.1 371C209.1 374.148 211.652 376.7 214.8 376.7Z" fill="#482F5A"/>
<path d="M228.5 363.7C228.1 363.7 227.6 363.5 227.3 363.1C226.9 362.7 218.5 352 206.8 356.4C206 356.7 205.2 356.3 204.9 355.5C204.6 354.7 205 353.9 205.8 353.6C219.6 348.4 229.6 361.1 229.7 361.2C230.2 361.9 230.1 362.8 229.4 363.3C229.1 363.6 228.8 363.7 228.5 363.7Z" fill="#482F5A"/>
<path d="M193.2 403.1C192.7 403.1 192.2 402.8 191.9 402.4C191.5 401.7 191.7 400.8 192.4 400.3C192.9 400 193.2 399.6 193.3 399C194 395.6 190.1 388.4 187.5 384.6C187 383.9 187.2 383 187.9 382.5C188.6 382 189.5 382.2 190 382.9C190.8 384 197.5 394 196.3 399.7C196 401.1 195.2 402.2 194 402.9C193.8 403 193.5 403.1 193.2 403.1Z" fill="#482F5A"/>
<path d="M185.5 423.8C178.5 423.8 170.7 421.9 164.5 415.3C163.9 414.7 164 413.8 164.6 413.2C165.2 412.6 166.1 412.7 166.7 413.3C179.5 427 201.4 417.8 201.6 417.7C202.4 417.4 203.2 417.7 203.6 418.5C204 419.3 203.6 420.1 202.8 420.5C202.2 420.6 194.6 423.8 185.5 423.8Z" fill="#482F5A"/>
<path d="M100.5 486.1C100.5 486.1 157.9 609.8 166.3 644C195.6 763.5 175.3 927.2 157.8 949.6C140.3 972 -0.60008 1016.7 -17.0001 974.2C-33.4001 931.7 -11.0001 751.3 -14.0001 724.5C-17.0001 697.7 -16.6001 584.6 -9.60009 564.5C-4.30009 549.1 -7.70007 519.9 100.5 486.1Z" fill="#EDF8FC"/>
<path d="M100.5 486.1C100.5 486.1 157.9 609.8 166.3 644C195.6 763.5 175.3 927.2 157.8 949.6C159.7 915 186.7 792.8 159.9 708.1C150.7 678.9 116.8 625 108.2 596.5C106.8 592 124.6 575.6 119.6 575.6C112.9 575.6 97.0999 572.9 94.2999 570.6C91.0999 568 66 526.7 59.2 500.8C70.8 496 84.3999 491.1 100.5 486.1Z" fill="#DEEDF3"/>
<path d="M162.3 522.8L184.2 520.6C184.2 520.6 215.4 760 210.5 793.3C205.5 826.6 199.6 839 199.6 839L166.3 807.2C166.3 807.2 176.7 628.8 162.3 522.8Z" fill="#416FB6"/>
<path d="M157.8 499.8C157.8 499.8 170.9 502.1 181.1 499.8C183.5 503.6 189.9 517.5 189.9 517.5L182.8 528.7C180.1 533 174.4 534.2 170.3 531.4C162.9 526.5 152.9 519.3 153.8 517.3C155.2 514.1 157.8 499.8 157.8 499.8Z" fill="#416FB6"/>
<path opacity="0.5" d="M96.2999 368.5C96.2999 368.5 91.0999 359.4 88.0999 363.7C85.0999 367.9 96.2999 381.1 96.2999 381.1V368.5Z" fill="#FBB882"/>
<path d="M280.4 614.8C279.6 614.8 278.9 614.1 278.9 613.3C278.9 594.9 270.3 569.1 270.2 568.9C269.9 568.1 270.4 567.3 271.1 567C271.9 566.8 272.7 567.2 273 567.9C273.4 569 281.8 594.4 281.8 613.3C281.9 614.2 281.2 614.8 280.4 614.8Z" fill="#DEEDF3"/>
<path d="M188.6 476.2C188.3 478.4 187.9 480.6 187.3 482.8C193.1 484.5 200.6 487.3 208.2 492.2C230.4 506.5 243.1 530.6 245.9 563.8C246.1 565.7 247.7 567.1 249.6 566.9C249.9 566.9 250.1 566.8 250.4 566.7C251.9 566.2 252.9 564.8 252.7 563.2C247.4 500.9 208.9 481.9 188.6 476.2Z" fill="#444444"/>
<path d="M135.8 598C126.4 572.9 100.5 559 76.6 565.6C61 493.2 103.8 480.9 105.6 480.4C107.4 479.9 108.5 478.1 108 476.2C107.5 474.4 105.7 473.3 103.9 473.8C103.4 473.9 52.6 488 70.1 567.9C47.1 578.2 36.1 606 45.6 631.5C54.8 656.2 69 670 82.9 668.5C83.5 668.4 84.1 668.3 84.6 668.2C86.1 669.1 88.2 669.4 90.2 668.6C93.4 667.4 95.2 664.1 94.1 661.3C93 658.5 89.6 657.1 86.4 658.3C84.7 658.9 83.4 660.1 82.8 661.5C72.9 663 62.2 652.9 54.2 634.4C54.6 630.5 56.8 626.1 60.8 621.7C66.9 614.8 76.3 608.8 87.1 604.8C105.4 598 123.7 598.7 131.3 605.7C134.3 615.3 135.5 624 134.7 631C133.9 637.7 131.5 642.3 127.4 644.8C126 644.2 124.2 644.1 122.5 644.7C119.3 645.9 117.5 649.2 118.6 652C119.7 654.8 123.1 656.2 126.3 655C128.3 654.3 129.7 652.8 130.2 651.1C136.5 647.6 140.4 641 141.4 631.8C142.5 622.6 140.6 610.9 135.8 598ZM85.5 600.8C74 605.1 64 611.5 57.4 618.9C54.8 621.8 52.9 624.7 51.5 627.6C44 605.1 54.4 581 75.2 573.2C96 565.4 119.7 576.9 128.7 598.8C118.6 594.1 102.4 594.5 85.5 600.8Z" fill="#444444"/>
<path d="M264.1 573.3C266.6 580.8 262.5 588.9 254.9 591.4C247.4 593.9 239.3 589.8 236.8 582.2C234.3 574.7 238.4 566.6 246 564.1C253.6 561.7 261.7 565.8 264.1 573.3Z" fill="#444444"/>
<path d="M257 575.6C258.2 579.2 256.2 583.1 252.6 584.3C249 585.5 245.1 583.5 243.9 579.9C242.7 576.3 244.7 572.4 248.3 571.2C252 570 255.8 572 257 575.6Z" fill="#444444"/>
<path d="M306.2 879.7C306 879.7 305.7 879.7 305.4 879.6C270.3 870.6 244.1 844.8 243 843.7C241.8 842.5 241.8 840.6 243 839.5C244.2 838.3 246 838.3 247.2 839.5C247.5 839.8 273.4 865.3 306.9 873.9C308.5 874.3 309.5 875.9 309.1 877.5C308.8 878.8 307.6 879.7 306.2 879.7Z" fill="#DEEDF3"/>
<path d="M109.3 466.8C109.3 466.8 168.3 497.4 169.6 499.9C170.9 502.4 149.9 531.9 149.9 531.9L100.4 486.2L109.3 466.8Z" fill="#D4E9F8"/>
<path d="M189.5 472.9C189.5 472.9 170.3 497.3 169.7 499.8C169.1 502.3 194.9 526.7 194.9 526.7L195.6 486.1L189.5 472.9Z" fill="#D4E9F8"/>
<path d="M327.5 850.3H170.4C162.2 850.3 156.6 843.7 158 835.5L196.3 613.2C197.7 605 205.5 598.4 213.8 598.4H370.9C379.1 598.4 384.7 605 383.3 613.2L345 835.5C343.6 843.7 335.8 850.3 327.5 850.3Z" fill="#F79221"/>
<path d="M322 585.2C319.3 585.2 317.2 583.4 317 580.7C316.4 572.1 309.7 565.7 300.4 565.7C291.1 565.7 282.2 572.1 278.6 580.7C277.5 583.3 274.8 585.2 272 585.2H256.2C252.9 585.2 249.7 587.9 249.2 591.1L245.7 611.7C245.1 615 247.4 617.6 250.7 617.6H332.2C335.5 617.6 338.7 614.9 339.2 611.7L342.7 591.1C343.3 587.8 341 585.2 337.7 585.2H322Z" fill="#B1802D"/>
<path d="M364.1 724.4C362.1 705 391.9 677.9 376.5 677.9C362.6 677.9 360.1 693 359.6 697C359.1 701 351.1 691 342.2 692.5C333.3 694 311.9 709.3 321.8 726.7C331.7 744.1 350.8 761.5 357.1 765L364.1 724.4Z" fill="#DEEDF3"/>
<path d="M383.5 704.8C381.5 685.4 396.7 664.8 381.3 664.8C367.4 664.8 364.9 679.9 364.4 683.9C363.9 687.9 355.9 677.9 347 679.4C338.1 680.9 316.7 696.2 326.6 713.6C336.5 731 349.3 739.4 355.6 742.9C368.1 750 386.5 734.9 383.5 704.8Z" fill="#FBB882"/>
<path d="M60.7999 824.6C68.0999 823.5 75.4 822.6 82.7 821.8C84.7 821.6 86.6 821.4 88.6 821.1C88.7 821.1 89.3 821 90.6 820.7C101.5 818.9 112.5 817.7 123.3 815.6C133.2 813.7 140.5 810 148.9 806.8C159.8 802.6 185.7 785 193.3 779.2C196.1 777.1 183.4 761.3 190 759.8C211.1 751.1 248.2 748.9 244.5 703.2C243.4 704.4 176.5 724.6 175.3 725.8C171.8 729.5 167.7 733 163.4 735.9C146.5 768.1 102.3 763 72.7 758.4C56.7 755.9 37.2 752.6 20.4 746.2C8.59996 745.8 -3.20003 744.1 -13.9 740C-15.2 776.3 -23.1 856.8 -23 915.2C-15.7 868.9 11 832.1 60.7999 824.6Z" fill="#DEEDF3"/>
<path d="M140.8 717.5C140.8 717.5 158.9 697.3 163.4 685.4C167.9 673.5 166.6 659.2 180 659.2C193.4 659.2 184.2 692.6 184.2 692.6C184.2 692.6 208.4 697.5 217.7 692.5C229 686.4 245.7 674.5 245.7 689.9C245.7 715.2 234 730.6 220.6 736.6C207.2 742.6 193.8 739.6 185.3 745C181.2 747.7 169 756.9 169 756.9L140.8 717.5Z" fill="#FBB882"/>
<path d="M16 524.5C16 524.5 -31 553.1 -53.2 617.7C-78 690 -61.1 775.3 24.1 801C98.9 823.5 178.1 770.9 178.1 770.9L140.9 717.5C140.9 717.5 114.8 729.8 83.5 729.1C29 727.9 15.4 701.5 2.59998 664.8C-7.60002 635.8 -8.90003 564 16 524.5Z" fill="#EDF8FC"/>
<path d="M74.8999 732.9C52.8999 732.9 36.2999 726.1 25.0999 712.6C11.6999 696.3 9.99993 674.3 10.7999 658.7C11.7999 641.3 16.6999 622.5 23.3999 610.7C23.7999 610 24.6999 609.7 25.3999 610.1C26.0999 610.5 26.3999 611.4 25.9999 612.1C14.2999 632.6 4.69994 683.1 27.3999 710.6C45.8999 733.1 80.6999 735.9 131 719C131.8 718.7 132.6 719.2 132.9 719.9C133.2 720.7 132.7 721.5 132 721.8C110.1 729.2 91.0999 732.9 74.8999 732.9Z" fill="#DEEDF3"/>
<path d="M66.1 869.6C64.5 869.6 63.1 868.3 63.1 866.7C63.1 865 64.4 863.7 66 863.7C66.4 863.7 102.8 862.8 132.2 844.8C133.6 843.9 135.4 844.4 136.3 845.8C137.2 847.2 136.7 849 135.3 849.9C104.5 868.7 67.7 869.6 66.1 869.6Z" fill="#DEEDF3"/>
</g>
<path opacity="0.4" d="M477.7 274C562.034 274 630.4 205.634 630.4 121.3C630.4 36.966 562.034 -31.4001 477.7 -31.4001C393.366 -31.4001 325 36.966 325 121.3C325 205.634 393.366 274 477.7 274Z" fill="#416FB6"/>
<path opacity="0.4" d="M572.533 1278.14C665.164 1185.51 665.164 1035.32 572.533 942.69C479.901 850.058 329.716 850.058 237.084 942.69C144.453 1035.32 144.453 1185.51 237.085 1278.14C329.716 1370.77 479.901 1370.77 572.533 1278.14Z" fill="#416FB6"/>
</svg>
