<svg width="588" height="1266" viewBox="0 0 588 1266" fill="none" xmlns="http://www.w3.org/2000/svg">
<path d="M229.7 992.3C414.826 992.3 564.9 842.226 564.9 657.1C564.9 471.974 414.826 321.9 229.7 321.9C44.5741 321.9 -105.5 471.974 -105.5 657.1C-105.5 842.226 44.5741 992.3 229.7 992.3Z" fill="#597ABC"/>
<mask id="mask0_10_151" style="mask-type:luminance" maskUnits="userSpaceOnUse" x="-106" y="146" width="671" height="847">
<path d="M564.9 657.1C564.9 842.2 414.8 992.3 229.7 992.3C44.5999 992.3 -105.5 842.2 -105.5 657.1C-105.5 472 44.5999 146.3 229.7 146.3C414.8 146.3 564.9 472 564.9 657.1Z" fill="white"/>
</mask>
<g mask="url(#mask0_10_151)">
<path d="M202 396.8C239.776 396.8 270.4 355.207 270.4 303.9C270.4 252.593 239.776 211 202 211C164.224 211 133.6 252.593 133.6 303.9C133.6 355.207 164.224 396.8 202 396.8Z" fill="#FAC3BD"/>
<mask id="mask1_10_151" style="mask-type:luminance" maskUnits="userSpaceOnUse" x="133" y="210" width="138" height="187">
<path d="M202 396.8C239.776 396.8 270.4 355.207 270.4 303.9C270.4 252.593 239.776 211 202 211C164.224 211 133.6 252.593 133.6 303.9C133.6 355.207 164.224 396.8 202 396.8Z" fill="white"/>
</mask>
<g mask="url(#mask1_10_151)">
<path opacity="0.45" d="M164.8 242.2C164 245.1 240.6 279.4 261.5 249.6C282.3 219.9 167.8 231.8 164.8 242.2Z" fill="#FAC3BD"/>
</g>
<path d="M148.5 346.3C150 349.3 157.4 387.9 148.5 426.6L133.6 524.8L184.2 597.7L236.3 642.3L257.1 553.1L252.6 416.3C252.6 416.3 242.2 367.2 251.1 334.5C260 301.7 148.5 346.3 148.5 346.3Z" fill="#FAC3BD"/>
<mask id="mask2_10_151" style="mask-type:luminance" maskUnits="userSpaceOnUse" x="133" y="322" width="125" height="321">
<path d="M148.5 346.3C150 349.3 157.4 387.9 148.5 426.6L133.6 524.8L184.2 597.7L236.3 642.3L257.1 553.1L252.6 416.3C252.6 416.3 242.2 367.2 251.1 334.5C260 301.7 148.5 346.3 148.5 346.3Z" fill="white"/>
</mask>
<g mask="url(#mask2_10_151)">
<path opacity="0.45" d="M147 387.9C147 387.9 208.1 456.8 250.4 385.9C292.7 315 151.4 373 147 387.9Z" fill="#FAC3BD"/>
</g>
<path d="M53.3 657.8C53.3 657.8 89 769.3 94.9 830.3C100.8 891.3 112.7 1001.3 112.7 1001.3L313.5 982C313.5 982 377.4 726.2 365.6 668.2C353.7 610.2 307.6 470.4 307.6 470.4L286.8 439.2L254.1 431.8L202 501C202 501 171.4 444.7 151.4 431.1L133.6 427.4L53.3 592.5V657.8Z" fill="#01AEA1"/>
<mask id="mask3_10_151" style="mask-type:luminance" maskUnits="userSpaceOnUse" x="53" y="427" width="315" height="575">
<path d="M53.3 657.8C53.3 657.8 89 769.3 94.9 830.3C100.8 891.3 112.7 1001.3 112.7 1001.3L313.5 982C313.5 982 377.4 726.2 365.6 668.2C353.7 610.2 307.6 470.4 307.6 470.4L286.8 439.2L254.1 431.8L202 501C202 501 171.4 444.7 151.4 431.1L133.6 427.4L53.3 592.5V657.8Z" fill="white"/>
</mask>
<g mask="url(#mask3_10_151)">
<path opacity="0.21" d="M146.5 439.2C146.5 439.2 193 483.1 202 521.7L258.5 438.4L254.8 408.7C254.8 408.8 123.8 359.7 146.5 439.2Z" fill="#01AEA1"/>
</g>
<mask id="mask4_10_151" style="mask-type:luminance" maskUnits="userSpaceOnUse" x="53" y="427" width="315" height="575">
<path d="M53.3 657.8C53.3 657.8 89 769.3 94.9 830.3C100.8 891.3 112.7 1001.3 112.7 1001.3L313.5 982C313.5 982 377.4 726.2 365.6 668.2C353.7 610.2 307.6 470.4 307.6 470.4L286.8 439.2L254.1 431.8L202 501C202 501 171.4 444.7 151.4 431.1L133.6 427.4L53.3 592.5V657.8Z" fill="white"/>
</mask>
<g mask="url(#mask4_10_151)">
<path opacity="0.21" d="M151.4 434C151.4 434 187.1 578.2 182.6 758.2C178.2 938.2 176.7 1017 176.7 1017L218.3 1009.6C218.3 1009.6 229.5 451.8 248.4 439.2C267.3 426.6 312 538.1 312 538.1L295.7 994.7L237.7 1061.6H136.6L97.9 930.7C97.9 930.8 129.1 411.7 151.4 434Z" fill="#01AEA1"/>
</g>
<path d="M133.6 427.3C133.6 427.3 148.5 397.6 152.9 397.6C152.9 397.6 161.8 532.9 166.3 576.1C170.8 619.3 170.8 924.1 166.3 1001.4C161.8 1078.7 96.4 1010.3 96.4 1010.3C96.4 1010.3 69.6 710.6 62 686.3C56 667.2 34 616.2 38.4 596.9C42.9 577.6 109.8 466 109.8 466L133.6 427.3Z" fill="#F6FCFE"/>
<path d="M94 811.3C82 805.2 70.4999 797.8 60.6999 788.8C60.6999 788.8 56.1999 702.5 68.0999 663.9C79.9999 625.2 133.5 427.4 133.5 427.4C133.5 427.4 23.3999 501.8 11.5999 527C-0.30007 552.3 -41.9 736.7 -34.5 782.8C-27.1 828.9 -10.7 851.2 19 863.1C28 866.7 51.1999 871.3 77.5999 875.5C75.0999 861.8 73.8 835.2 94 811.3Z" fill="#F6FCFE"/>
<mask id="mask5_10_151" style="mask-type:luminance" maskUnits="userSpaceOnUse" x="-36" y="427" width="170" height="449">
<path d="M94 811.3C82 805.2 70.4999 797.8 60.6999 788.8C60.6999 788.8 56.1999 702.5 68.0999 663.9C79.9999 625.2 133.5 427.4 133.5 427.4C133.5 427.4 23.3999 501.8 11.5999 527C-0.30007 552.3 -41.9 736.7 -34.5 782.8C-27.1 828.9 -10.7 851.2 19 863.1C28 866.7 51.1999 871.3 77.5999 875.5C75.0999 861.8 73.8 835.2 94 811.3Z" fill="white"/>
</mask>
<g mask="url(#mask5_10_151)">
<path opacity="0.47" d="M64.8 792.3C64.8 792.3 25 831.1 44.4 881.7C63.7 932.2 107.5 801.1 64.8 792.3Z" fill="#53B8E9"/>
</g>
<path d="M177.3 884.1C176.7 884 176.7 836.4 176.7 836.4C176.7 836.4 133.1 831.2 94 811.3C73.8 835.2 75.0999 861.9 77.6999 875.5C138.7 885.3 217 893.4 177.3 884.1Z" fill="#F9B4AF"/>
<mask id="mask6_10_151" style="mask-type:luminance" maskUnits="userSpaceOnUse" x="76" y="811" width="113" height="78">
<path d="M177.3 884.1C176.7 884 176.7 836.4 176.7 836.4C176.7 836.4 133.1 831.2 94 811.3C73.8 835.2 75.0999 861.9 77.6999 875.5C138.7 885.3 217 893.4 177.3 884.1Z" fill="white"/>
</mask>
<g mask="url(#mask6_10_151)">
<path opacity="0.45" d="M133.6 814.8C133.6 814.8 132.9 816 132.2 818.2C129.9 824.8 126.5 840.1 136.6 857.9C150 881.7 130.7 898.1 132.1 901C133.6 904 188.6 924.8 188.6 924.8V838.5" fill="#FAC3BD"/>
</g>
<path d="M249.6 393.9C249.6 393.9 276.4 415.5 286.8 439.3L343.3 487.6C343.3 487.6 389.7 610.3 383.5 631.9C377.3 653.4 354.8 764.2 358.7 767.6C362.6 771 356.7 814.1 356.7 814.1L322.5 1017.9L237.7 1007.5C237.7 1007.5 255.5 619.3 252.6 562.8C249.6 506.2 243.6 413.2 249.6 393.9Z" fill="#F6FCFE"/>
<mask id="mask7_10_151" style="mask-type:luminance" maskUnits="userSpaceOnUse" x="237" y="393" width="148" height="625">
<path d="M249.6 393.9C249.6 393.9 276.4 415.5 286.8 439.3L343.3 487.6C343.3 487.6 389.7 610.3 383.5 631.9C377.3 653.4 354.8 764.2 358.7 767.6C362.6 771 356.7 814.1 356.7 814.1L322.5 1017.9L237.7 1007.5C237.7 1007.5 255.5 619.3 252.6 562.8C249.6 506.2 243.6 413.2 249.6 393.9Z" fill="white"/>
</mask>
<g mask="url(#mask7_10_151)">
<path opacity="0.47" d="M339.6 785.9C339.6 785.9 351.1 779.1 353.9 754.5C356.7 730 364.1 661.1 356.7 631.6C356.7 631.6 361.2 700.2 349.3 718.1C337.4 735.9 321.7 742.8 333.3 754.2C344.9 765.6 303.2 788 315.1 801.4C326.9 814.8 332.9 806.1 339.6 785.9Z" fill="#53B8E9"/>
</g>
<path d="M120.2 314.3C122.1 324.4 128.9 331.7 135.3 330.5C141.7 329.3 145.5 320.1 143.6 310C141.7 299.9 134.9 292.6 128.5 293.8C122 295 118.3 304.2 120.2 314.3Z" fill="#FAC3BD"/>
<path d="M282.3 314.3C280.4 324.4 273.6 331.7 267.2 330.5C260.8 329.3 257 320.1 258.9 310C260.8 299.9 267.6 292.6 274 293.8C280.5 295 284.2 304.2 282.3 314.3Z" fill="#FAC3BD"/>
<path opacity="0.47" d="M129 434.7L109 499.5L128.3 517.3L114.9 548.5C114.9 548.5 156.5 624.3 159.5 697.2C159.5 697.2 141.7 584.2 103 548.5L120.8 518.8L103 499.5L129 434.7Z" fill="#53B8E9"/>
<path d="M82.8 880.3C82.8 880.3 59 851.7 97.3 809.8C97.3 809.8 94.5999 800.5 87.1999 801.6C79.7999 802.7 68 791.8 61.8 798.8C55.6 805.8 34.2 832.1 51.8 876.3C51.8 876.3 56.7 882.6 62 881.6C67.2 880.4 83.6 884.3 82.8 880.3Z" fill="#F6FCFE"/>
<path d="M144 312.1C144 312.1 156.6 342.5 169.7 338.5C182.8 334.5 205 330 231.8 338.9C258.6 347.8 266 303.2 266 303.2C266 303.2 269 358.2 269 365.7C269 373.1 225.9 410.3 202.1 408.8C178.3 407.3 139.3 377.2 136.7 370.1C132.2 358.2 136.7 312.1 136.7 312.1H144Z" fill="#11153E"/>
<path d="M144 312.1C144 312.1 138.1 267.5 147 261.5C155.9 255.5 161.9 243.7 169.3 245.1C176.7 246.6 226 262.4 249.6 251.1C286.8 233.3 267.4 170.8 225.8 194.6C206.3 205.8 141 185.7 144 211C144 211 111.3 222.9 120.2 254.1C129.1 285.3 139.5 322.5 139.5 322.5L144 312.1Z" fill="#11153E"/>
<path d="M237.7 240.7C237.7 240.7 251.1 249.6 257 263C262.9 276.4 266.4 312.2 266.4 312.2L273.4 294.3C273.4 294.3 297.2 227.4 255.6 227.4C213.9 227.3 237.7 240.7 237.7 240.7Z" fill="#11153E"/>
<path d="M179.7 293.5C179.7 297.2 178.4 300.2 176.7 300.2C175 300.2 173.7 297.2 173.7 293.5C173.7 289.8 175 286.8 176.7 286.8C178.4 286.8 179.7 289.8 179.7 293.5Z" fill="#151422"/>
<path d="M231.7 293.5C231.7 297.2 230.4 300.2 228.7 300.2C227 300.2 225.7 297.2 225.7 293.5C225.7 289.8 227 286.8 228.7 286.8C230.4 286.8 231.7 289.8 231.7 293.5Z" fill="#151422"/>
<path d="M165.7 280.7C170.6 276.6 177.5 275.7 183.2 278.5C185.8 279.7 188 275.9 185.4 274.7C177.7 271 169 272.1 162.5 277.6C160.3 279.4 163.5 282.6 165.7 280.7Z" fill="#11153E"/>
<path d="M220.2 278.3C225.9 274.7 232.7 274.7 238.3 278.3C240.7 279.8 243 276 240.5 274.5C233.6 270 224.8 270 217.9 274.5C215.5 276 217.8 279.9 220.2 278.3Z" fill="#11153E"/>
<g opacity="0.55">
<path d="M206.1 289.5C207.8 300.7 209.6 311.8 211.3 323C211.4 323.6 211.2 324.2 210.5 324.4C206.5 325.4 202.6 326.4 198.6 327.4C197.2 327.7 196.6 325.6 198 325.2C201.2 324.4 207.1 324.2 209.7 322.3C208.3 323.3 209.4 323.5 208.8 321.4C208.2 319.5 208.1 317.1 207.8 315.2C206.5 306.9 205.2 298.5 203.9 290.2C203.7 288.7 205.8 288 206.1 289.5Z" fill="#D07A73"/>
</g>
<path d="M184.2 352.2C184.2 352.2 202 358.1 211 356.7C219.9 355.2 214 374.6 199.1 371.6C184.2 368.6 170.8 355.2 184.2 352.2Z" fill="white"/>
<path opacity="0.47" d="M285.4 439.2L305.4 504L286.1 521.8L299.5 553C299.5 553 257.9 628.8 254.9 701.7C254.9 701.7 272.7 588.7 311.4 553L293.6 523.3L311.4 504L285.4 439.2Z" fill="#53B8E9"/>
<path d="M321 471.2C321 471.2 301.7 457.8 286.8 439.2C286.8 439.2 367.1 483.8 387.9 515C408.7 546.2 423.6 659.3 426.6 717.3C429.6 775.3 431.4 842.2 364.3 863.8C364.3 863.8 361.9 813.6 324.4 803.4C324.4 803.4 356.7 784.3 353.8 750.1C350.9 715.9 367.2 657.2 367.2 657.2L321.1 483.2L321 471.2Z" fill="#F6FCFE"/>
<mask id="mask8_10_151" style="mask-type:luminance" maskUnits="userSpaceOnUse" x="286" y="439" width="142" height="425">
<path d="M321 471.2C321 471.2 301.7 457.8 286.8 439.2C286.8 439.2 367.1 483.8 387.9 515C408.7 546.2 423.6 659.3 426.6 717.3C429.6 775.3 431.4 842.2 364.3 863.8C364.3 863.8 361.9 813.6 324.4 803.4C324.4 803.4 356.7 784.3 353.8 750.1C350.9 715.9 367.2 657.2 367.2 657.2L321.1 483.2L321 471.2Z" fill="white"/>
</mask>
<g mask="url(#mask8_10_151)">
<path opacity="0.47" d="M340.3 782C342.6 779.6 407.2 792.4 401.3 850.4C395.3 908.4 304.6 820.7 340.3 782Z" fill="#53B8E9"/>
</g>
<path d="M136.6 945.6L185.6 697.3L352.2 657.1L356.7 663.1L292.7 911.4L144 945.6H136.6Z" fill="#4E64AE"/>
<mask id="mask9_10_151" style="mask-type:luminance" maskUnits="userSpaceOnUse" x="136" y="657" width="221" height="289">
<path d="M136.6 945.6L185.6 697.3L352.2 657.1L356.7 663.1L292.7 911.4L144 945.6H136.6Z" fill="white"/>
</mask>
<g mask="url(#mask9_10_151)">
<path opacity="0.31" d="M136.6 959L142.5 948.6L194.6 701.7L373.1 657.1L331.5 634.8L200.6 670.5L130.7 734.4L106.9 863.8C106.8 863.8 105.3 950.1 136.6 959Z" fill="#4E64AE"/>
</g>
<path d="M338.2 791.8C338.2 791.8 318 819.9 240.6 846.7C240.6 846.7 234.7 815.5 216.8 808C199 800.6 193 784.2 188.5 788.7C184 793.2 181.1 805.1 200.4 822.9C200.4 822.9 201.9 827.4 195.9 825.9C189.9 824.4 161.7 815.5 161.7 814C161.7 812.5 166.2 787.2 166.2 787.2C166.2 787.2 151.3 796.1 151.3 800.6C151.3 805.1 151.3 814 148.3 817C145.3 820 140.9 825.9 143.8 834.8C146.8 843.7 140.8 851.2 142.3 857.1C143.8 863 160.1 892.8 231.5 889.8C231.5 889.8 347.3 892.8 382.9 846C383.2 846.1 354.6 800.7 338.2 791.8Z" fill="#F9B4AF"/>
<path d="M322 805.1C322 805.1 359.1 808.4 361.6 865.2C361.6 865.2 370.1 869.9 374.5 863.9C379 858 395 857.3 394.4 847.9C393.8 838.6 390.3 804.9 346.7 786C346.7 786 338.8 785 335.8 789.5C332.9 793.9 318.5 802.8 322 805.1Z" fill="#F6FCFE"/>
</g>
<path opacity="0.4" d="M585.944 229.286C645.576 169.653 645.576 72.9698 585.944 13.3373C526.311 -46.2952 429.628 -46.2952 369.995 13.3373C310.363 72.9698 310.363 169.653 369.995 229.286C429.628 288.918 526.311 288.918 585.944 229.286Z" fill="#416FB6"/>
<path opacity="0.4" d="M405.2 1347.7C536.202 1347.7 642.4 1241.5 642.4 1110.5C642.4 979.498 536.202 873.3 405.2 873.3C274.198 873.3 168 979.498 168 1110.5C168 1241.5 274.198 1347.7 405.2 1347.7Z" fill="#416FB6"/>
</svg>
