<?xml version="1.0" encoding="utf-8"?>
<!-- Generator: Adobe Illustrator 24.3.0, SVG Export Plug-In . SVG Version: 6.00 Build 0)  -->
<svg version="1.1" id="Layer_1" xmlns="http://www.w3.org/2000/svg" xmlns:xlink="http://www.w3.org/1999/xlink" x="0px" y="0px"
	 viewBox="0 0 435.69 84.26" style="enable-background:new 0 0 435.69 84.26;" xml:space="preserve">
<style type="text/css">
	.st0{fill:#0384A3;}
	.st1{fill:#313445;}
	.st2{fill:#556AFF;}
</style>
<g>
	<g>
		<g>
			<path class="st0" d="M168.9,11.25h-13.44V4.89h34.4v6.37h-13.44v34.17h-7.53V11.25z"/>
			<path class="st0" d="M221.9,14.5v30.93H215v-4c-1.2,1.47-2.67,2.57-4.43,3.3c-1.76,0.73-3.7,1.1-5.82,1.1
				c-3.01,0-5.7-0.66-8.08-1.97c-2.38-1.31-4.23-3.17-5.56-5.56s-2-5.18-2-8.34s0.67-5.94,2-8.31c1.33-2.38,3.19-4.22,5.56-5.53
				c2.38-1.31,5.07-1.97,8.08-1.97c2.01,0,3.85,0.35,5.53,1.05c1.68,0.69,3.14,1.72,4.37,3.07V14.5L221.9,14.5L221.9,14.5z
				 M212.16,36.97c1.74-1.77,2.61-4.11,2.61-7.01s-0.87-5.23-2.61-7.01c-1.74-1.77-3.94-2.66-6.6-2.66c-2.67,0-4.86,0.89-6.58,2.66
				c-1.72,1.77-2.58,4.11-2.58,7.01s0.86,5.23,2.58,7.01c1.72,1.77,3.91,2.66,6.58,2.66S210.43,38.75,212.16,36.97z"/>
			<path class="st0" d="M279.64,14.5l-11.41,30.93h-6.95l-7.99-21.31l-8.11,21.31h-6.95L226.88,14.5h6.83l8.16,22.82l8.52-22.82
				h6.08l8.34,22.94l8.4-22.94C273.21,14.5,279.64,14.5,279.64,14.5z"/>
			<path class="st0" d="M313.98,14.5v30.93h-6.89v-4c-1.2,1.47-2.67,2.57-4.43,3.3c-1.76,0.73-3.7,1.1-5.82,1.1
				c-3.01,0-5.7-0.66-8.08-1.97c-2.38-1.31-4.23-3.17-5.56-5.56c-1.33-2.39-2-5.18-2-8.34s0.67-5.94,2-8.31
				c1.33-2.38,3.19-4.22,5.56-5.53c2.38-1.31,5.07-1.97,8.08-1.97c2.01,0,3.85,0.35,5.53,1.05c1.68,0.69,3.14,1.72,4.37,3.07V14.5
				L313.98,14.5L313.98,14.5z M304.25,36.97c1.74-1.77,2.61-4.11,2.61-7.01s-0.87-5.23-2.61-7.01s-3.94-2.66-6.6-2.66
				c-2.66,0-4.86,0.89-6.58,2.66c-1.72,1.77-2.58,4.11-2.58,7.01s0.86,5.23,2.58,7.01c1.72,1.77,3.91,2.66,6.58,2.66
				C300.31,39.64,302.51,38.75,304.25,36.97z"/>
			<path class="st0" d="M347.63,39.64v5.79h-26.7v-4.57L337.9,20.3h-16.62V14.5h25.89v4.57l-17.03,20.56H347.63z"/>
			<path class="st0" d="M384.24,14.5v30.93h-6.89v-3.94c-1.16,1.39-2.61,2.46-4.34,3.22c-1.74,0.76-3.61,1.13-5.62,1.13
				c-4.13,0-7.39-1.15-9.76-3.44c-2.38-2.29-3.56-5.7-3.56-10.22V14.5h7.24v16.68c0,2.78,0.63,4.86,1.88,6.23
				c1.25,1.37,3.04,2.06,5.36,2.06c2.58,0,4.64-0.8,6.17-2.4c1.52-1.6,2.29-3.91,2.29-6.92V14.5H384.24z"/>
			<path class="st0" d="M420.66,17.57c2.36,2.28,3.53,5.65,3.53,10.14v17.73h-7.24v-16.8c0-2.7-0.64-4.74-1.91-6.11
				c-1.27-1.37-3.09-2.06-5.45-2.06c-2.67,0-4.77,0.8-6.31,2.4c-1.55,1.6-2.31,3.91-2.31,6.92v15.64h-7.24V14.5h6.89v4
				c1.2-1.43,2.7-2.51,4.52-3.24c1.82-0.73,3.86-1.1,6.14-1.1C415.18,14.15,418.31,15.29,420.66,17.57z"/>
		</g>
	</g>
	<g>
		<path class="st1" d="M171.01,62.34h1.15v5.83h7.45v-5.83h1.15v13.24h-1.15v-6.32h-7.45v6.32h-1.15V62.34z"/>
		<path class="st1" d="M195.56,74.51c-0.8,0.91-1.91,1.37-3.3,1.37c-1.42,0-2.52-0.45-3.31-1.34c-0.78-0.89-1.18-2.13-1.18-3.7
			c0-1.58,0.41-2.82,1.23-3.73c0.82-0.9,1.91-1.35,3.3-1.35c1.39,0,2.49,0.45,3.28,1.34c0.79,0.89,1.18,2.13,1.18,3.7
			C196.76,72.36,196.36,73.6,195.56,74.51z M189.75,73.84c0.55,0.75,1.39,1.12,2.51,1.12c1.14,0,1.98-0.37,2.54-1.13
			c0.55-0.76,0.83-1.77,0.83-3.04c0-1.26-0.28-2.27-0.83-3.01c-0.55-0.75-1.4-1.12-2.54-1.12c-1.12,0-1.96,0.37-2.51,1.12
			c-0.55,0.75-0.82,1.76-0.82,3.03C188.93,72.08,189.2,73.09,189.75,73.84z"/>
		<path class="st1" d="M204.54,66.04h1.07v1.52c0.42-0.6,0.91-1.05,1.46-1.35c0.55-0.31,1.12-0.46,1.71-0.46
			c1.45,0,2.36,0.64,2.74,1.91c0.42-0.62,0.92-1.09,1.5-1.42c0.58-0.33,1.2-0.49,1.85-0.49c0.95,0,1.68,0.26,2.18,0.8
			c0.5,0.53,0.75,1.34,0.75,2.45v6.58h-1.09v-6.34c0-0.93-0.17-1.58-0.51-1.97c-0.34-0.38-0.86-0.58-1.55-0.58
			c-0.37,0-0.74,0.07-1.12,0.2c-0.37,0.14-0.71,0.37-1.04,0.69c-0.27,0.27-0.47,0.55-0.6,0.82c-0.13,0.28-0.19,0.67-0.19,1.18v5.99
			h-1.07v-6.34c0-0.9-0.17-1.55-0.52-1.95c-0.35-0.39-0.86-0.6-1.54-0.6c-0.82,0-1.53,0.31-2.15,0.94c-0.25,0.26-0.44,0.53-0.6,0.82
			c-0.15,0.29-0.22,0.73-0.22,1.31v5.8h-1.07v-9.51H204.54z"/>
		<path class="st1" d="M225.71,75.86c-1.41,0-2.49-0.44-3.25-1.32c-0.76-0.88-1.14-2.1-1.14-3.67c0-1.64,0.4-2.91,1.21-3.8
			s1.86-1.34,3.19-1.34c1.37,0,2.39,0.42,3.05,1.28c0.66,0.85,0.99,2,0.99,3.44v0.6h-7.34c0.03,1.25,0.34,2.21,0.9,2.89
			c0.56,0.68,1.37,1.02,2.4,1.02c0.82,0,1.45-0.17,1.91-0.5c0.46-0.33,0.76-0.8,0.91-1.41h1.04c-0.16,0.87-0.57,1.55-1.21,2.05
			C227.7,75.61,226.82,75.86,225.71,75.86z M222.42,70.23h6.24c-0.03-1.17-0.28-2.07-0.74-2.7c-0.46-0.62-1.21-0.94-2.25-0.94
			c-1.07,0-1.87,0.34-2.38,1.02C222.79,68.3,222.5,69.17,222.42,70.23z"/>
		<path class="st1" d="M254.75,62.34h1.15v5.83h7.45v-5.83h1.15v13.24h-1.15v-6.32h-7.45v6.32h-1.15V62.34z"/>
		<path class="st1" d="M275.91,75.86c-1.41,0-2.49-0.44-3.25-1.32c-0.76-0.88-1.14-2.1-1.14-3.67c0-1.64,0.4-2.91,1.21-3.8
			c0.8-0.89,1.86-1.34,3.19-1.34c1.37,0,2.39,0.42,3.05,1.28c0.66,0.85,0.99,2,0.99,3.44v0.6h-7.34c0.03,1.25,0.34,2.21,0.9,2.89
			c0.56,0.68,1.37,1.02,2.4,1.02c0.82,0,1.45-0.17,1.91-0.5c0.46-0.33,0.76-0.8,0.91-1.41h1.04c-0.16,0.87-0.57,1.55-1.21,2.05
			C277.9,75.61,277.02,75.86,275.91,75.86z M272.63,70.23h6.24c-0.03-1.17-0.28-2.07-0.74-2.7c-0.46-0.62-1.21-0.94-2.25-0.94
			c-1.07,0-1.87,0.34-2.38,1.02C272.99,68.3,272.7,69.17,272.63,70.23z"/>
		<path class="st1" d="M296.07,75.57h-1.05v-1.5c-0.36,0.51-0.82,0.92-1.38,1.24c-0.56,0.32-1.24,0.49-2.03,0.49
			c-1.01,0-1.82-0.24-2.42-0.73c-0.6-0.49-0.9-1.2-0.9-2.14c0-0.79,0.2-1.41,0.61-1.86c0.41-0.45,0.97-0.78,1.7-0.97
			c0.72-0.19,1.55-0.31,2.49-0.35l1.91-0.08v-0.41c0-0.95-0.19-1.63-0.58-2.03c-0.39-0.4-1.04-0.6-1.95-0.6
			c-0.82,0-1.46,0.14-1.88,0.42c-0.42,0.28-0.71,0.69-0.85,1.23l-0.98-0.11c0.17-0.82,0.57-1.43,1.19-1.82
			c0.62-0.39,1.48-0.58,2.55-0.58c1.28,0,2.2,0.3,2.75,0.89c0.55,0.6,0.82,1.48,0.82,2.65L296.07,75.57L296.07,75.57z M294.99,72.09
			v-1.61l-1.82,0.08c-0.95,0.03-1.7,0.14-2.26,0.31c-0.55,0.17-0.95,0.43-1.18,0.76c-0.23,0.33-0.34,0.76-0.34,1.26
			c0,0.63,0.19,1.12,0.58,1.48c0.38,0.35,0.97,0.53,1.76,0.53c0.93,0,1.7-0.24,2.33-0.72C294.68,73.68,294.99,72.99,294.99,72.09z"
			/>
		<path class="st1" d="M305.05,62.34h1.07v13.24h-1.07V62.34z"/>
		<path class="st1" d="M324.38,72.95c0,0.6,0.12,1.07,0.38,1.41c0.26,0.33,0.64,0.5,1.18,0.5c0.26,0,0.49-0.02,0.71-0.06
			c0.21-0.04,0.41-0.1,0.6-0.17l0.2,0.85c-0.24,0.08-0.49,0.16-0.75,0.21c-0.26,0.06-0.57,0.08-0.9,0.08c-0.95,0-1.6-0.27-1.95-0.82
			c-0.35-0.54-0.53-1.3-0.53-2.28v-5.77h-1.48v-0.87h1.48V63.4h1.07v2.63h2.83v0.87h-2.83L324.38,72.95L324.38,72.95z"/>
		<path class="st1" d="M338.59,62.34h1.07v5.22c0.47-0.62,1-1.07,1.61-1.37c0.6-0.3,1.25-0.44,1.93-0.44c1.06,0,1.86,0.29,2.39,0.88
			c0.53,0.59,0.8,1.45,0.8,2.58v6.35h-1.07v-6.15c0-0.95-0.19-1.64-0.58-2.08c-0.39-0.43-0.97-0.65-1.75-0.65
			c-0.46,0-0.89,0.08-1.31,0.23c-0.42,0.15-0.79,0.39-1.12,0.71c-0.32,0.31-0.55,0.6-0.69,0.89c-0.14,0.28-0.2,0.71-0.2,1.26v5.79
			h-1.07L338.59,62.34L338.59,62.34z"/>
		<path class="st1" d="M366.34,65.21c0.49-1.04,1.16-1.83,2.03-2.38c0.87-0.55,1.88-0.82,3.01-0.82c1.47,0,2.61,0.38,3.41,1.15
			c0.8,0.77,1.34,1.81,1.63,3.13l-1.12,0.2c-0.26-1.14-0.69-2-1.31-2.59c-0.61-0.6-1.48-0.89-2.62-0.89c-0.96,0-1.79,0.24-2.47,0.72
			c-0.69,0.48-1.21,1.16-1.57,2.06c-0.36,0.89-0.54,1.95-0.54,3.17c0,1.21,0.18,2.26,0.55,3.15c0.37,0.89,0.89,1.57,1.57,2.06
			s1.52,0.72,2.49,0.72c1.23,0,2.16-0.33,2.8-0.98c0.64-0.65,1.05-1.54,1.23-2.65h1.15c-0.16,1.39-0.68,2.5-1.56,3.35
			c-0.88,0.85-2.09,1.28-3.65,1.28c-1.18,0-2.21-0.28-3.07-0.82c-0.86-0.55-1.52-1.34-2-2.37s-0.71-2.27-0.71-3.71
			C365.62,67.5,365.85,66.25,366.34,65.21z"/>
		<path class="st1" d="M390.17,75.57h-1.05v-1.5c-0.36,0.51-0.82,0.92-1.38,1.24c-0.56,0.32-1.24,0.49-2.03,0.49
			c-1.01,0-1.82-0.24-2.42-0.73c-0.6-0.49-0.9-1.2-0.9-2.14c0-0.79,0.2-1.41,0.61-1.86c0.41-0.45,0.97-0.78,1.7-0.97
			c0.72-0.19,1.55-0.31,2.49-0.35l1.91-0.08v-0.41c0-0.95-0.19-1.63-0.58-2.03c-0.39-0.4-1.04-0.6-1.95-0.6
			c-0.82,0-1.46,0.14-1.88,0.42c-0.42,0.28-0.71,0.69-0.85,1.23l-0.98-0.11c0.17-0.82,0.57-1.43,1.19-1.82
			c0.62-0.39,1.48-0.58,2.55-0.58c1.28,0,2.2,0.3,2.75,0.89c0.55,0.6,0.82,1.48,0.82,2.65L390.17,75.57L390.17,75.57z M389.09,72.09
			v-1.61l-1.82,0.08c-0.95,0.03-1.7,0.14-2.26,0.31c-0.55,0.17-0.95,0.43-1.18,0.76c-0.23,0.33-0.34,0.76-0.34,1.26
			c0,0.63,0.19,1.12,0.58,1.48c0.38,0.35,0.97,0.53,1.76,0.53c0.93,0,1.7-0.24,2.33-0.72C388.78,73.68,389.09,72.99,389.09,72.09z"
			/>
		<path class="st1" d="M399.16,66.04h1.07v1.56c0.77-1.15,1.77-1.73,3.02-1.73c0.14,0,0.27,0.01,0.4,0.02s0.26,0.03,0.38,0.06
			l-0.13,1c-0.12-0.03-0.24-0.04-0.35-0.06s-0.24-0.02-0.37-0.02c-0.43,0-0.84,0.08-1.23,0.25c-0.38,0.17-0.73,0.43-1.05,0.79
			c-0.22,0.24-0.39,0.49-0.5,0.76c-0.11,0.27-0.17,0.64-0.17,1.11v5.79h-1.07V66.04z"/>
		<path class="st1" d="M420.32,75.86c-1.41,0-2.49-0.44-3.25-1.32c-0.76-0.88-1.14-2.1-1.14-3.67c0-1.64,0.4-2.91,1.21-3.8
			c0.8-0.89,1.86-1.34,3.19-1.34c1.37,0,2.39,0.42,3.05,1.28c0.66,0.85,0.99,2,0.99,3.44v0.6h-7.34c0.03,1.25,0.34,2.21,0.9,2.89
			c0.56,0.68,1.37,1.02,2.4,1.02c0.82,0,1.45-0.17,1.91-0.5c0.46-0.33,0.76-0.8,0.91-1.41h1.04c-0.16,0.87-0.57,1.55-1.21,2.05
			C422.31,75.61,421.43,75.86,420.32,75.86z M417.03,70.23h6.24c-0.03-1.17-0.28-2.07-0.74-2.7c-0.46-0.62-1.21-0.94-2.25-0.94
			c-1.07,0-1.87,0.34-2.38,1.02C417.4,68.3,417.11,69.17,417.03,70.23z"/>
	</g>
	<g>
		<path class="st2" d="M102.63,73.55c-0.04,0-0.08,0-0.12,0c-2.22-0.04-4.25-1.29-5.31-3.25L73.82,26.48L56.19,56.09
			c-1.09,1.83-3.05,2.97-5.18,3c-0.03,0-0.07,0-0.1,0c-2.09,0-4.05-1.07-5.18-2.83L33.48,37.12l-16.44-0.37
			c-3.4-0.08-6.08-2.89-6.01-6.28c0.08-3.4,2.9-6.08,6.28-6.01l19.71,0.44c2.04,0.05,3.94,1.11,5.04,2.83l8.65,13.51l18.12-30.43
			c1.14-1.91,3.22-3.06,5.43-3c2.22,0.06,4.23,1.3,5.28,3.25l23.32,43.71l15.65-26.84c1.1-1.89,3.13-3.05,5.31-3.05h10.75
			c3.4,0,6.15,2.75,6.15,6.15s-2.75,6.15-6.15,6.15h-7.22l-19.42,33.3C106.83,72.39,104.81,73.55,102.63,73.55z"/>
		<circle class="st2" cx="74.87" cy="66.35" r="7.33"/>
	</g>
</g>
</svg>
