<?xml version="1.0" encoding="utf-8"?>
<!-- Generator: Adobe Illustrator 24.3.0, SVG Export Plug-In . SVG Version: 6.00 Build 0)  -->
<svg version="1.1" id="Layer_1" xmlns="http://www.w3.org/2000/svg" xmlns:xlink="http://www.w3.org/1999/xlink" x="0px" y="0px"
	 viewBox="0 0 400 400" style="enable-background:new 0 0 400 400;" xml:space="preserve">
<style type="text/css">
	.st0{fill:#0D84A3;}
	.st1{fill:#313546;}
	.st2{fill:#5A6AB1;}
	.st3{fill:none;}
</style>
<g>
	<g>
		<g>
			<path class="st0" d="M23.79,255.46H4.22v-9.28h50.13v9.28H34.77v49.79H23.79V255.46z"/>
			<path class="st0" d="M101.01,260.18v45.06H90.97v-5.83c-1.75,2.14-3.9,3.75-6.45,4.81c-2.56,1.07-5.39,1.61-8.48,1.61
				c-4.39,0-8.31-0.96-11.77-2.87c-3.46-1.91-6.16-4.61-8.1-8.1s-2.91-7.54-2.91-12.16s0.97-8.65,2.91-12.11
				c1.94-3.46,4.64-6.15,8.1-8.06c3.46-1.91,7.38-2.87,11.77-2.87c2.93,0,5.61,0.5,8.06,1.52c2.44,1.01,4.57,2.5,6.37,4.47v-5.48
				h10.55V260.18z M86.83,292.92c2.53-2.58,3.8-5.99,3.8-10.21s-1.26-7.62-3.8-10.21c-2.53-2.58-5.73-3.88-9.62-3.88
				s-7.08,1.29-9.58,3.88c-2.5,2.58-3.76,5.99-3.76,10.21s1.25,7.62,3.76,10.21c2.5,2.58,5.69,3.88,9.58,3.88
				C81.09,296.8,84.3,295.52,86.83,292.92z"/>
			<path class="st0" d="M185.15,260.18l-16.63,45.06h-10.13l-11.64-31.06l-11.81,31.06h-10.13l-16.54-45.06h9.96l11.89,33.25
				l12.41-33.25h8.86l12.16,33.42l12.24-33.42C175.79,260.18,185.15,260.18,185.15,260.18z"/>
			<path class="st0" d="M235.19,260.18v45.06h-10.05v-5.83c-1.75,2.14-3.9,3.75-6.45,4.81c-2.56,1.07-5.39,1.61-8.48,1.61
				c-4.39,0-8.31-0.96-11.77-2.87c-3.46-1.91-6.16-4.61-8.1-8.1c-1.94-3.48-2.91-7.54-2.91-12.16s0.97-8.65,2.91-12.11
				c1.94-3.46,4.64-6.15,8.1-8.06c3.46-1.91,7.38-2.87,11.77-2.87c2.93,0,5.61,0.5,8.06,1.52c2.44,1.01,4.57,2.5,6.37,4.47v-5.48
				h10.55V260.18z M221.01,292.92c2.53-2.58,3.8-5.99,3.8-10.21s-1.26-7.62-3.8-10.21c-2.53-2.58-5.73-3.88-9.62-3.88
				c-3.88,0-7.08,1.29-9.58,3.88c-2.5,2.58-3.76,5.99-3.76,10.21s1.25,7.62,3.76,10.21c2.5,2.58,5.69,3.88,9.58,3.88
				C215.28,296.81,218.48,295.52,221.01,292.92z"/>
			<path class="st0" d="M284.22,296.81v8.44h-38.9v-6.66l24.73-29.96h-24.22v-8.44h37.72v6.66l-24.81,29.96H284.22z"/>
			<path class="st0" d="M337.56,260.18v45.06h-10.05v-5.73c-1.69,2.03-3.8,3.58-6.33,4.68c-2.53,1.1-5.26,1.65-8.19,1.65
				c-6.02,0-10.76-1.68-14.22-5.02c-3.46-3.34-5.19-8.31-5.19-14.89v-25.75h10.55v24.3c0,4.05,0.92,7.08,2.75,9.08s4.43,3,7.8,3
				c3.77,0,6.76-1.17,8.99-3.5c2.22-2.33,3.33-5.69,3.33-10.09v-22.79H337.56z"/>
			<path class="st0" d="M390.63,264.65c3.43,3.32,5.15,8.24,5.15,14.77v25.83h-10.55v-24.47c0-3.94-0.93-6.91-2.79-8.91
				c-1.86-2-4.5-3-7.94-3c-3.89,0-6.95,1.17-9.2,3.5c-2.25,2.33-3.37,5.69-3.37,10.09v22.79h-10.55v-45.07h10.05v5.83
				c1.75-2.08,3.94-3.65,6.58-4.73c2.65-1.07,5.62-1.61,8.95-1.61C382.65,259.68,387.2,261.34,390.63,264.65z"/>
		</g>
	</g>
	<g>
		<path class="st1" d="M23.68,329.89h1.68v8.5h10.85v-8.5h1.68v19.28h-1.68v-9.21H25.36v9.21h-1.68V329.89z"/>
		<path class="st1" d="M59.45,347.62c-1.17,1.32-2.78,1.99-4.81,1.99c-2.07,0-3.68-0.66-4.82-1.96c-1.14-1.3-1.72-3.1-1.72-5.39
			c0-2.3,0.6-4.11,1.79-5.43c1.19-1.31,2.79-1.97,4.81-1.97c2.03,0,3.62,0.66,4.78,1.96c1.15,1.3,1.73,3.1,1.73,5.39
			C61.21,344.49,60.63,346.29,59.45,347.62z M50.99,346.65c0.8,1.09,2.02,1.64,3.66,1.64c1.66,0,2.89-0.55,3.7-1.65
			c0.81-1.1,1.21-2.57,1.21-4.43c0-1.84-0.4-3.3-1.21-4.39c-0.81-1.09-2.04-1.64-3.7-1.64c-1.64,0-2.86,0.55-3.65,1.64
			c-0.8,1.09-1.2,2.56-1.2,4.41C49.79,344.08,50.19,345.56,50.99,346.65z"/>
		<path class="st1" d="M72.55,335.29h1.56v2.21c0.62-0.87,1.32-1.52,2.12-1.97c0.8-0.45,1.64-0.68,2.49-0.68
			c2.11,0,3.44,0.93,4,2.78c0.62-0.9,1.34-1.59,2.19-2.07c0.85-0.47,1.75-0.72,2.7-0.72c1.38,0,2.44,0.38,3.17,1.16
			c0.73,0.78,1.09,1.96,1.09,3.56v9.59h-1.6v-9.24c0-1.35-0.25-2.3-0.75-2.87c-0.49-0.56-1.25-0.84-2.25-0.84
			c-0.55,0-1.08,0.1-1.63,0.29c-0.54,0.2-1.04,0.54-1.51,1c-0.39,0.39-0.69,0.8-0.88,1.2c-0.19,0.4-0.28,0.98-0.28,1.72v8.72h-1.56
			v-9.24c0-1.31-0.25-2.26-0.76-2.84c-0.5-0.58-1.25-0.87-2.24-0.87c-1.19,0-2.23,0.45-3.13,1.37c-0.36,0.37-0.65,0.78-0.87,1.2
			c-0.21,0.42-0.32,1.06-0.32,1.91v8.45h-1.56v-13.85H72.55z"/>
		<path class="st1" d="M103.38,349.6c-2.05,0-3.63-0.64-4.74-1.92c-1.11-1.28-1.67-3.06-1.67-5.35c0-2.39,0.59-4.24,1.76-5.53
			c1.17-1.29,2.72-1.95,4.64-1.95c2,0,3.48,0.62,4.44,1.87c0.96,1.24,1.44,2.92,1.44,5.02v0.87H98.58c0.05,1.82,0.49,3.22,1.31,4.21
			s1.99,1.48,3.49,1.48c1.19,0,2.11-0.24,2.78-0.73c0.67-0.48,1.11-1.17,1.32-2.05H109c-0.23,1.26-0.83,2.25-1.77,2.99
			C106.28,349.23,105,349.6,103.38,349.6z M98.6,341.39h9.1c-0.05-1.71-0.41-3.02-1.08-3.93c-0.67-0.91-1.76-1.36-3.27-1.36
			c-1.56,0-2.73,0.49-3.47,1.48C99.13,338.57,98.71,339.84,98.6,341.39z"/>
		<path class="st1" d="M145.7,329.89h1.68v8.5h10.85v-8.5h1.68v19.28h-1.68v-9.21h-10.85v9.21h-1.68V329.89z"/>
		<path class="st1" d="M176.53,349.6c-2.05,0-3.63-0.64-4.74-1.92c-1.11-1.28-1.67-3.06-1.67-5.35c0-2.39,0.59-4.24,1.76-5.53
			c1.17-1.29,2.72-1.95,4.64-1.95c2,0,3.48,0.62,4.44,1.87c0.96,1.24,1.44,2.92,1.44,5.02v0.87h-10.69
			c0.05,1.82,0.49,3.22,1.31,4.21s1.99,1.48,3.49,1.48c1.19,0,2.11-0.24,2.78-0.73c0.67-0.48,1.11-1.17,1.32-2.05h1.51
			c-0.23,1.26-0.83,2.25-1.77,2.99C179.43,349.23,178.15,349.6,176.53,349.6z M171.75,341.39h9.1c-0.05-1.71-0.41-3.02-1.08-3.93
			c-0.67-0.91-1.76-1.36-3.27-1.36c-1.56,0-2.73,0.49-3.47,1.48C172.27,338.57,171.86,339.84,171.75,341.39z"/>
		<path class="st1" d="M205.91,349.17h-1.53v-2.19c-0.53,0.74-1.19,1.34-2.01,1.81c-0.82,0.46-1.81,0.71-2.96,0.71
			c-1.47,0-2.66-0.35-3.52-1.07c-0.87-0.71-1.31-1.75-1.31-3.12c0-1.15,0.29-2.06,0.89-2.72c0.6-0.66,1.41-1.13,2.47-1.41
			c1.05-0.28,2.26-0.45,3.63-0.51l2.78-0.11v-0.6c0-1.38-0.28-2.37-0.85-2.96c-0.57-0.59-1.51-0.88-2.85-0.88
			c-1.2,0-2.12,0.2-2.75,0.61c-0.62,0.4-1.03,1-1.23,1.8l-1.43-0.16c0.25-1.2,0.83-2.09,1.74-2.66c0.91-0.57,2.15-0.85,3.72-0.85
			c1.87,0,3.21,0.43,4.01,1.29c0.8,0.87,1.2,2.15,1.2,3.86v9.17H205.91z M204.34,344.09v-2.35l-2.65,0.11
			c-1.38,0.05-2.48,0.2-3.29,0.45c-0.81,0.25-1.38,0.63-1.72,1.11s-0.49,1.1-0.49,1.84c0,0.92,0.28,1.64,0.84,2.15
			c0.56,0.51,1.41,0.77,2.56,0.77c1.35,0,2.48-0.35,3.39-1.05C203.89,346.42,204.34,345.41,204.34,344.09z"/>
		<path class="st1" d="M219,329.89h1.56v19.28H219V329.89z"/>
		<path class="st1" d="M247.16,345.36c0,0.88,0.18,1.56,0.56,2.05c0.37,0.48,0.94,0.73,1.72,0.73c0.37,0,0.72-0.03,1.03-0.09
			c0.3-0.06,0.6-0.15,0.87-0.25l0.29,1.24c-0.34,0.12-0.71,0.23-1.09,0.31c-0.38,0.08-0.83,0.12-1.31,0.12
			c-1.38,0-2.33-0.39-2.85-1.19c-0.51-0.79-0.77-1.9-0.77-3.32v-8.4h-2.16v-1.27h2.16v-3.84h1.56v3.84h4.13v1.27h-4.13v8.8H247.16z"
			/>
		<path class="st1" d="M267.87,329.89h1.56v7.61c0.69-0.9,1.46-1.56,2.35-2c0.88-0.43,1.82-0.65,2.81-0.65
			c1.54,0,2.71,0.42,3.48,1.28c0.78,0.86,1.16,2.11,1.16,3.77v9.26h-1.56v-8.97c0-1.38-0.28-2.39-0.85-3.03
			c-0.57-0.63-1.41-0.95-2.55-0.95c-0.67,0-1.3,0.11-1.91,0.33c-0.61,0.22-1.15,0.58-1.64,1.04c-0.46,0.45-0.8,0.88-1,1.29
			s-0.29,1.03-0.29,1.84v8.43h-1.56L267.87,329.89L267.87,329.89z"/>
		<path class="st1" d="M308.3,334.08c0.71-1.51,1.69-2.67,2.96-3.47c1.27-0.8,2.74-1.2,4.39-1.2c2.14,0,3.8,0.56,4.97,1.68
			s1.96,2.64,2.37,4.56l-1.63,0.29c-0.37-1.66-1.01-2.92-1.91-3.78c-0.89-0.87-2.16-1.29-3.82-1.29c-1.4,0-2.6,0.35-3.6,1.05
			c-1,0.7-1.76,1.7-2.28,3c-0.53,1.29-0.79,2.84-0.79,4.61c0,1.77,0.26,3.29,0.8,4.59c0.54,1.29,1.29,2.29,2.29,3
			c1,0.71,2.21,1.05,3.63,1.05c1.79,0,3.14-0.47,4.08-1.43c0.94-0.95,1.53-2.24,1.79-3.86h1.68c-0.23,2.02-0.99,3.64-2.27,4.89
			c-1.28,1.24-3.05,1.87-5.32,1.87c-1.73,0-3.22-0.4-4.47-1.2s-2.22-1.95-2.91-3.45c-0.69-1.5-1.03-3.31-1.03-5.41
			C307.25,337.41,307.59,335.58,308.3,334.08z"/>
		<path class="st1" d="M343.02,349.17h-1.53v-2.19c-0.53,0.74-1.19,1.34-2.01,1.81c-0.82,0.46-1.81,0.71-2.96,0.71
			c-1.47,0-2.66-0.35-3.52-1.07c-0.87-0.71-1.31-1.75-1.31-3.12c0-1.15,0.29-2.06,0.89-2.72c0.6-0.66,1.41-1.13,2.47-1.41
			c1.05-0.28,2.26-0.45,3.63-0.51l2.78-0.11v-0.6c0-1.38-0.28-2.37-0.85-2.96s-1.51-0.88-2.85-0.88c-1.2,0-2.12,0.2-2.75,0.61
			c-0.62,0.4-1.03,1-1.23,1.8l-1.43-0.16c0.25-1.2,0.83-2.09,1.74-2.66c0.91-0.57,2.15-0.85,3.72-0.85c1.87,0,3.21,0.43,4.01,1.29
			c0.8,0.87,1.2,2.15,1.2,3.86v9.17H343.02z M341.45,344.09v-2.35l-2.65,0.11c-1.38,0.05-2.48,0.2-3.29,0.45s-1.38,0.63-1.72,1.11
			c-0.33,0.48-0.49,1.1-0.49,1.84c0,0.92,0.28,1.64,0.84,2.15c0.56,0.51,1.41,0.77,2.56,0.77c1.35,0,2.48-0.35,3.39-1.05
			C341,346.42,341.45,345.41,341.45,344.09z"/>
		<path class="st1" d="M356.11,335.29h1.56v2.27c1.12-1.68,2.58-2.51,4.4-2.51c0.2,0,0.39,0.01,0.59,0.03
			c0.19,0.02,0.37,0.04,0.56,0.08l-0.19,1.45c-0.18-0.04-0.35-0.06-0.51-0.08c-0.16-0.02-0.34-0.03-0.55-0.03
			c-0.63,0-1.22,0.12-1.79,0.36c-0.56,0.24-1.07,0.63-1.53,1.15c-0.32,0.34-0.57,0.71-0.73,1.11c-0.16,0.39-0.24,0.94-0.24,1.62
			v8.43h-1.56V335.29z"/>
		<path class="st1" d="M386.95,349.6c-2.05,0-3.63-0.64-4.74-1.92c-1.11-1.28-1.67-3.06-1.67-5.35c0-2.39,0.59-4.24,1.76-5.53
			c1.17-1.29,2.72-1.95,4.64-1.95c2,0,3.48,0.62,4.44,1.87c0.96,1.24,1.44,2.92,1.44,5.02v0.87h-10.69
			c0.05,1.82,0.49,3.22,1.31,4.21c0.82,0.99,1.99,1.48,3.49,1.48c1.19,0,2.11-0.24,2.78-0.73c0.67-0.48,1.11-1.17,1.32-2.05h1.51
			c-0.23,1.26-0.83,2.25-1.77,2.99C389.85,349.23,388.56,349.6,386.95,349.6z M382.16,341.39h9.1c-0.05-1.71-0.41-3.02-1.08-3.93
			c-0.67-0.91-1.76-1.36-3.27-1.36c-1.56,0-2.73,0.49-3.47,1.48C382.7,338.57,382.27,339.84,382.16,341.39z"/>
	</g>
	<g>
		<path class="st2" d="M264.39,218.67c-0.1,0-0.18,0-0.28,0c-5.35-0.1-10.24-3.1-12.78-7.82l-56.28-105.48l-42.45,71.29
			c-2.62,4.4-7.34,7.14-12.48,7.22c-0.08,0-0.17,0-0.23,0c-5.04,0-9.74-2.57-12.46-6.82l-29.49-46.07l-39.56-0.88
			c-8.17-0.18-14.64-6.96-14.46-15.11c0.18-8.17,6.97-14.64,15.11-14.46l47.45,1.05c4.92,0.12,9.47,2.67,12.13,6.82l20.82,32.52
			l43.62-73.24c2.74-4.59,7.74-7.36,13.06-7.22c5.34,0.13,10.19,3.12,12.71,7.82l56.14,105.21l37.66-64.6
			c2.65-4.55,7.52-7.34,12.78-7.34h25.89c8.17,0,14.79,6.62,14.79,14.79s-6.62,14.79-14.79,14.79H323.9l-46.73,80.14
			C274.52,215.89,269.65,218.67,264.39,218.67z"/>
		<circle class="st2" cx="197.58" cy="201.34" r="17.65"/>
	</g>
</g>
<rect x="-2.21" class="st3" width="402.21" height="400"/>
</svg>
